<svg width="19" height="25" viewBox="0 0 19 25" fill="none" xmlns="http://www.w3.org/2000/svg">
<path d="M9.37494 12.5C10.6111 12.5 11.8194 12.1334 12.8473 11.4467C13.8751 10.7599 14.6761 9.78381 15.1492 8.64177C15.6222 7.49974 15.746 6.24307 15.5048 5.03069C15.2637 3.81831 14.6684 2.70466 13.7944 1.83059C12.9203 0.956507 11.8066 0.361252 10.5943 0.120095C9.38187 -0.121063 8.12521 0.00270804 6.98317 0.475756C5.84113 0.948803 4.86501 1.74988 4.17825 2.77769C3.4915 3.8055 3.12494 5.01387 3.12494 6.25C3.12659 7.9071 3.78561 9.49585 4.95735 10.6676C6.12909 11.8393 7.71784 12.4983 9.37494 12.5ZM9.37494 2.08334C10.199 2.08334 11.0046 2.32771 11.6898 2.78555C12.375 3.24339 12.9091 3.89413 13.2244 4.65549C13.5398 5.41685 13.6223 6.25462 13.4615 7.06288C13.3008 7.87113 12.9039 8.61356 12.3212 9.19628C11.7385 9.779 10.9961 10.1758 10.1878 10.3366C9.37956 10.4974 8.54178 10.4149 7.78042 10.0995C7.01907 9.78414 6.36832 9.25008 5.91048 8.56488C5.45264 7.87967 5.20827 7.07409 5.20827 6.25C5.20827 5.14493 5.64726 4.08513 6.42866 3.30372C7.21006 2.52232 8.26987 2.08334 9.37494 2.08334Z" fill="#F3F3F3"/>
<path d="M9.375 14.5833C6.88944 14.5861 4.50647 15.5747 2.74892 17.3322C0.991363 19.0898 0.00275714 21.4728 0 23.9583C0 24.2346 0.109747 24.4995 0.305097 24.6949C0.500447 24.8903 0.765399 25 1.04167 25C1.31793 25 1.58289 24.8903 1.77824 24.6949C1.97359 24.4995 2.08333 24.2346 2.08333 23.9583C2.08333 22.0245 2.85156 20.1698 4.21901 18.8023C5.58646 17.4349 7.44113 16.6667 9.375 16.6667C11.3089 16.6667 13.1635 17.4349 14.531 18.8023C15.8984 20.1698 16.6667 22.0245 16.6667 23.9583C16.6667 24.2346 16.7764 24.4995 16.9718 24.6949C17.1671 24.8903 17.4321 25 17.7083 25C17.9846 25 18.2495 24.8903 18.4449 24.6949C18.6403 24.4995 18.75 24.2346 18.75 23.9583C18.7472 21.4728 17.7586 19.0898 16.0011 17.3322C14.2435 15.5747 11.8606 14.5861 9.375 14.5833Z" fill="#F3F3F3"/>
</svg>
