<svg width="22" height="22" viewBox="0 0 22 22" fill="none" xmlns="http://www.w3.org/2000/svg">
<path d="M9.05484 0.806074C9.31022 0.550526 9.61346 0.347805 9.94722 0.209496C10.281 0.0711842 10.6387 -5.72205e-06 11 -5.72205e-06C11.3613 -5.72205e-06 11.719 0.0711842 12.0528 0.209496C12.3866 0.347805 12.6898 0.550526 12.9452 0.806074L15.8886 3.74949C16.0464 3.92403 16.1311 4.15257 16.125 4.3878C16.119 4.62303 16.0227 4.84693 15.8561 5.01314C15.6896 5.17935 15.4655 5.27515 15.2302 5.28069C14.995 5.28623 14.7666 5.20109 14.5924 5.04291L11.9103 2.35982L11.9167 16.5012C11.9167 16.7444 11.8201 16.9775 11.6482 17.1494C11.4763 17.3213 11.2431 17.4179 11 17.4179C10.7569 17.4179 10.5237 17.3213 10.3518 17.1494C10.1799 16.9775 10.0833 16.7444 10.0833 16.5012L10.0751 2.37724L7.40759 5.04291C7.23558 5.21479 7.00234 5.3113 6.75918 5.31122C6.51602 5.31113 6.28284 5.21445 6.11096 5.04245C5.93908 4.87045 5.84257 4.63721 5.84265 4.39404C5.84274 4.15088 5.93942 3.91771 6.11142 3.74582L9.05484 0.806074Z" fill="#A8A8A8"/>
<path d="M21.0833 14.6667C20.8402 14.6667 20.6071 14.7632 20.4352 14.9351C20.2632 15.107 20.1667 15.3402 20.1667 15.5833V19.25C20.1667 19.4931 20.0701 19.7263 19.8982 19.8982C19.7263 20.0701 19.4931 20.1667 19.25 20.1667H2.75C2.50688 20.1667 2.27373 20.0701 2.10182 19.8982C1.92991 19.7263 1.83333 19.4931 1.83333 19.25V15.5833C1.83333 15.3402 1.73676 15.107 1.56485 14.9351C1.39294 14.7632 1.15978 14.6667 0.916667 14.6667C0.673552 14.6667 0.440394 14.7632 0.268485 14.9351C0.0965771 15.107 0 15.3402 0 15.5833L0 19.25C0 19.9793 0.289731 20.6788 0.805456 21.1945C1.32118 21.7103 2.02065 22 2.75 22H19.25C19.9793 22 20.6788 21.7103 21.1945 21.1945C21.7103 20.6788 22 19.9793 22 19.25V15.5833C22 15.3402 21.9034 15.107 21.7315 14.9351C21.5596 14.7632 21.3264 14.6667 21.0833 14.6667Z" fill="#A8A8A8"/>
</svg>
