<svg width="22" height="22" viewBox="0 0 22 22" fill="none" xmlns="http://www.w3.org/2000/svg">
<path d="M9.05484 16.6118C9.31022 16.8674 9.61346 17.0701 9.94722 17.2084C10.281 17.3467 10.6387 17.4179 11 17.4179C11.3613 17.4179 11.719 17.3467 12.0528 17.2084C12.3866 17.0701 12.6898 16.8674 12.9452 16.6118L15.8886 13.6684C16.0464 13.4939 16.1311 13.2653 16.125 13.0301C16.119 12.7949 16.0227 12.571 15.8561 12.4048C15.6896 12.2386 15.4655 12.1428 15.2302 12.1372C14.995 12.1317 14.7666 12.2168 14.5924 12.375L11.9103 15.0581L11.9167 0.916667C11.9167 0.673552 11.8201 0.440394 11.6482 0.268485C11.4763 0.0965771 11.2431 0 11 0C10.7569 0 10.5237 0.0965771 10.3518 0.268485C10.1799 0.440394 10.0833 0.673552 10.0833 0.916667L10.0751 15.0407L7.40759 12.375C7.23558 12.2031 7.00234 12.1066 6.75918 12.1067C6.51602 12.1068 6.28284 12.2035 6.11096 12.3755C5.93908 12.5475 5.84257 12.7807 5.84265 13.0239C5.84274 13.267 5.93942 13.5002 6.11142 13.6721L9.05484 16.6118Z" fill="#A8A8A8"/>
<path d="M21.0833 14.6667C20.8402 14.6667 20.6071 14.7633 20.4352 14.9352C20.2632 15.1071 20.1667 15.3402 20.1667 15.5834V19.25C20.1667 19.4931 20.0701 19.7263 19.8982 19.8982C19.7263 20.0701 19.4931 20.1667 19.25 20.1667H2.75C2.50688 20.1667 2.27373 20.0701 2.10182 19.8982C1.92991 19.7263 1.83333 19.4931 1.83333 19.25V15.5834C1.83333 15.3402 1.73676 15.1071 1.56485 14.9352C1.39294 14.7633 1.15978 14.6667 0.916667 14.6667C0.673552 14.6667 0.440394 14.7633 0.268485 14.9352C0.0965771 15.1071 0 15.3402 0 15.5834L0 19.25C0 19.9794 0.289731 20.6788 0.805456 21.1946C1.32118 21.7103 2.02065 22 2.75 22H19.25C19.9793 22 20.6788 21.7103 21.1945 21.1946C21.7103 20.6788 22 19.9794 22 19.25V15.5834C22 15.3402 21.9034 15.1071 21.7315 14.9352C21.5596 14.7633 21.3264 14.6667 21.0833 14.6667Z" fill="#A8A8A8"/>
</svg>
