<svg width="22" height="25" viewBox="0 0 22 25" fill="none" xmlns="http://www.w3.org/2000/svg">
<path d="M11.0001 8.15065C10.1941 8.15065 9.40613 8.38967 8.73594 8.83747C8.06576 9.28527 7.54341 9.92175 7.23496 10.6664C6.92651 11.4111 6.8458 12.2305 7.00305 13.021C7.1603 13.8116 7.54844 14.5377 8.11838 15.1077C8.68833 15.6776 9.41448 16.0658 10.205 16.223C10.9956 16.3803 11.815 16.2995 12.5596 15.9911C13.3043 15.6826 13.9408 15.1603 14.3886 14.4901C14.8364 13.8199 15.0754 13.032 15.0754 12.226C15.0754 11.1451 14.646 10.1086 13.8818 9.34429C13.1175 8.58002 12.0809 8.15065 11.0001 8.15065ZM11.0001 14.2636C10.5971 14.2636 10.2031 14.1441 9.86801 13.9202C9.53292 13.6963 9.27174 13.3781 9.11752 13.0058C8.96329 12.6334 8.92294 12.2237 9.00156 11.8285C9.08019 11.4332 9.27426 11.0701 9.55923 10.7851C9.8442 10.5002 10.2073 10.3061 10.6025 10.2275C10.9978 10.1488 11.4075 10.1892 11.7799 10.3434C12.1522 10.4977 12.4704 10.7588 12.6943 11.0939C12.9182 11.429 13.0377 11.823 13.0377 12.226C13.0377 12.7664 12.8231 13.2847 12.4409 13.6668C12.0588 14.049 11.5405 14.2636 11.0001 14.2636Z" fill="#F3F3F3"/>
<path d="M20.469 14.1618L20.0167 13.9009C20.2203 12.7929 20.2203 11.657 20.0167 10.549L20.469 10.2882C20.8169 10.0875 21.1218 9.82023 21.3664 9.50169C21.611 9.18315 21.7904 8.81956 21.8945 8.43167C21.9986 8.04378 22.0252 7.63919 21.9729 7.241C21.9206 6.84281 21.7904 6.45882 21.5897 6.11096C21.3891 5.76309 21.1218 5.45816 20.8033 5.21357C20.4847 4.96899 20.1211 4.78954 19.7332 4.68547C19.3454 4.5814 18.9408 4.55475 18.5426 4.60705C18.1444 4.65934 17.7604 4.78955 17.4125 4.99024L16.9592 5.25208C16.1029 4.52048 15.1188 3.95332 14.0565 3.57916V3.0565C14.0565 2.24586 13.7345 1.46843 13.1613 0.895227C12.5881 0.322023 11.8106 0 11 0C10.1894 0 9.41193 0.322023 8.83873 0.895227C8.26553 1.46843 7.9435 2.24586 7.9435 3.0565V3.57916C6.88126 3.95467 5.89753 4.52321 5.04187 5.25616L4.58645 4.99228C3.8839 4.58696 3.04912 4.47733 2.26574 4.68751C1.48236 4.89768 0.814555 5.41045 0.409238 6.11299C0.00392158 6.81554 -0.105708 7.65033 0.104467 8.43371C0.314642 9.21709 0.827405 9.88489 1.52995 10.2902L1.98232 10.551C1.77866 11.6591 1.77866 12.7949 1.98232 13.903L1.52995 14.1638C0.827405 14.5691 0.314642 15.2369 0.104467 16.0203C-0.105708 16.8037 0.00392158 17.6385 0.409238 18.341C0.814555 19.0436 1.48236 19.5563 2.26574 19.7665C3.04912 19.9767 3.8839 19.8671 4.58645 19.4617L5.03983 19.1999C5.89643 19.9316 6.88084 20.4988 7.9435 20.8728V21.3955C7.9435 22.2061 8.26553 22.9835 8.83873 23.5567C9.41193 24.13 10.1894 24.452 11 24.452C11.8106 24.452 12.5881 24.13 13.1613 23.5567C13.7345 22.9835 14.0565 22.2061 14.0565 21.3955V20.8728C15.1187 20.4973 16.1025 19.9288 16.9581 19.1958L17.4136 19.4587C18.1161 19.864 18.9509 19.9736 19.7343 19.7635C20.5176 19.5533 21.1854 19.0405 21.5908 18.338C21.9961 17.6354 22.1057 16.8006 21.8955 16.0173C21.6854 15.2339 21.1726 14.5661 20.47 14.1608L20.469 14.1618ZM17.873 10.3147C18.2181 11.5648 18.2181 12.8851 17.873 14.1353C17.8128 14.3529 17.8265 14.5843 17.9121 14.7933C17.9977 15.0022 18.1502 15.1768 18.3458 15.2896L19.4502 15.9274C19.6843 16.0625 19.8552 16.2851 19.9252 16.5462C19.9953 16.8073 19.9587 17.0855 19.8236 17.3196C19.6885 17.5538 19.4659 17.7247 19.2048 17.7947C18.9437 17.8647 18.6655 17.8281 18.4314 17.693L17.3249 17.0532C17.1292 16.9399 16.9013 16.8948 16.6772 16.9253C16.4531 16.9557 16.2454 17.0599 16.087 17.2213C15.1802 18.1471 14.0377 18.8076 12.783 19.1316C12.5639 19.1879 12.3699 19.3155 12.2314 19.4943C12.0928 19.673 12.0177 19.8927 12.0178 20.1189V21.3955C12.0178 21.6657 11.9105 21.9248 11.7194 22.1159C11.5283 22.307 11.2692 22.4143 10.999 22.4143C10.7288 22.4143 10.4696 22.307 10.2786 22.1159C10.0875 21.9248 9.98015 21.6657 9.98015 21.3955V20.1199C9.98026 19.8938 9.90514 19.674 9.76661 19.4953C9.62808 19.3165 9.43402 19.189 9.21501 19.1327C7.96016 18.8073 6.81803 18.1454 5.91195 17.2183C5.75355 17.0568 5.54592 16.9527 5.3218 16.9222C5.09767 16.8918 4.86979 16.9368 4.67407 17.0502L3.56966 17.689C3.45374 17.7569 3.32553 17.8013 3.19241 17.8195C3.05928 17.8377 2.92387 17.8294 2.79397 17.795C2.66407 17.7607 2.54225 17.701 2.43551 17.6194C2.32878 17.5377 2.23924 17.4358 2.17206 17.3195C2.10488 17.2031 2.06137 17.0746 2.04405 16.9414C2.02673 16.8081 2.03594 16.6728 2.07115 16.5431C2.10635 16.4134 2.16686 16.292 2.24918 16.1858C2.3315 16.0796 2.43402 15.9908 2.55082 15.9243L3.65524 15.2866C3.8508 15.1737 4.00335 14.9991 4.08891 14.7902C4.17448 14.5813 4.18822 14.3498 4.12798 14.1322C3.78296 12.8821 3.78296 11.5618 4.12798 10.3116C4.18714 10.0945 4.17274 9.86386 4.08703 9.65577C4.00133 9.44768 3.84914 9.27383 3.65422 9.16134L2.5498 8.52355C2.31567 8.38845 2.14479 8.16586 2.07476 7.90477C2.00474 7.64367 2.0413 7.36545 2.1764 7.13132C2.31151 6.89718 2.53409 6.7263 2.79519 6.65627C3.05628 6.58625 3.3345 6.62281 3.56864 6.75791L4.67509 7.39774C4.87028 7.51136 5.09768 7.55689 5.32157 7.5272C5.54545 7.49751 5.75313 7.39427 5.91195 7.23371C6.8188 6.30794 7.96126 5.64741 9.21602 5.3234C9.43572 5.26692 9.63028 5.13874 9.76888 4.95917C9.90748 4.7796 9.98219 4.55891 9.98117 4.33208V3.0565C9.98117 2.78629 10.0885 2.52714 10.2796 2.33607C10.4706 2.14501 10.7298 2.03766 11 2.03766C11.2702 2.03766 11.5294 2.14501 11.7204 2.33607C11.9115 2.52714 12.0188 2.78629 12.0188 3.0565V4.33208C12.0187 4.55821 12.0938 4.77796 12.2324 4.9567C12.3709 5.13544 12.565 5.26302 12.784 5.31932C14.0392 5.64449 15.1817 6.30645 16.088 7.23371C16.2465 7.39516 16.4541 7.49931 16.6782 7.52975C16.9023 7.56018 17.1302 7.51518 17.3259 7.40182L18.4303 6.76301C18.5463 6.69506 18.6745 6.6507 18.8076 6.6325C18.9407 6.6143 19.0761 6.62261 19.206 6.65695C19.3359 6.69129 19.4578 6.75099 19.5645 6.83261C19.6712 6.91423 19.7608 7.01615 19.8279 7.13251C19.8951 7.24887 19.9386 7.37737 19.9559 7.51062C19.9733 7.64386 19.9641 7.77921 19.9289 7.90888C19.8936 8.03855 19.8331 8.15998 19.7508 8.26617C19.6685 8.37236 19.566 8.46122 19.4492 8.52763L18.3448 9.16542C18.1502 9.27821 17.9984 9.45219 17.9131 9.66026C17.8278 9.86832 17.8137 10.0988 17.873 10.3157V10.3147Z" fill="#F3F3F3"/>
</svg>
